<svg id="Layer_1" height="512" viewBox="0 0 256 256" width="512" xmlns="http://www.w3.org/2000/svg"><g><g><path d="m89.89 152.331v-40.681h43.357v40.682h39.147c15.164.019 27.441 12.471 27.422 27.636v72.032h-176.691v-72.259c.019-15.164 12.4-27.441 27.564-27.422z" fill="#526faa"/></g><g><g><path d="m172.393 152.331h-9.632c15.164.019 27.441 12.459 27.422 27.623v72.046h9.632v-72.033c.019-15.164-12.258-27.616-27.422-27.636z" fill="#34518c"/></g></g><g><g><path d="m50.689 152.319 9.632.012c-15.164-.02-27.545 12.258-27.564 27.422v72.247h-9.632v-72.259c.02-15.164 12.4-27.441 27.564-27.422z" fill="#708dc8"/></g></g><g><path d="m199.814 254h-176.689c-1.104 0-2-.895-2-2v-72.259c.021-16.231 13.265-29.422 29.528-29.422h.039l37.197.011v-38.681c0-1.104.896-2 2-2h43.356c1.105 0 2 .896 2 2v38.682h37.146c16.245.02 29.443 13.316 29.422 29.639v72.03c.001 1.105-.894 2-1.999 2zm-174.689-4h172.689v-70.033c.009-6.813-2.633-13.237-7.438-18.09-4.81-4.857-11.197-7.537-17.986-7.546h-39.144c-1.104 0-2-.896-2-2v-38.682h-39.356v38.682c0 .53-.211 1.039-.586 1.414s-.884.586-1.414.586c0 0 0 0-.001 0l-39.2-.012c-.011 0-.022 0-.033 0-6.795 0-13.191 2.64-18.018 7.436-4.836 4.807-7.504 11.195-7.513 17.989z" fill="#690589"/></g><g><path d="m79.177 152.328 32.391 50.077 32.391-50.074h-10.713v-40.681h-43.356v40.681z" fill="#ff9f70"/></g><g><path d="m111.567 204.405c-.679 0-1.311-.344-1.68-.914l-32.391-50.077c-.397-.615-.427-1.398-.077-2.042.351-.644 1.024-1.044 1.757-1.044h.001l8.712.002v-38.681c0-1.104.896-2 2-2h43.356c1.105 0 2 .896 2 2v38.682h8.713c.732 0 1.406.4 1.757 1.044s.32 1.427-.077 2.042l-32.392 50.074c-.368.57-1 .914-1.679.914zm-28.714-50.076 28.715 44.394 28.716-44.392h-7.037c-1.104 0-2-.896-2-2v-38.682h-39.357v38.682c0 .53-.211 1.039-.586 1.414s-.884.586-1.414.586c0 0 0 0-.001 0z" fill="#690589"/></g><g><path d="m57.235 62.041h108.47v26.858h-108.47z" fill="#fcc24c"/></g><g><path d="m165.705 90.898h-108.47c-1.104 0-2-.896-2-2v-26.857c0-1.104.896-2 2-2h108.47c1.105 0 2 .896 2 2v26.857c0 1.105-.895 2-2 2zm-106.47-4h104.47v-22.857h-104.47z" fill="#690589"/></g><g><path d="m68.535 74.537h-3.068c-7.931 0-14.361 6.43-14.361 14.362s6.43 14.361 14.361 14.361h3.068z" fill="#ffbd8e"/></g><g><path d="m157.553 74.537h-3.068v28.723h3.068c7.931 0 14.361-6.43 14.361-14.361.001-7.932-6.429-14.362-14.361-14.362z" fill="#e18152"/></g><g><path d="m111.51 147.544c-23.735 0-42.975-19.49-42.975-43.533v-30.139c0-24.043 19.24-43.533 42.975-43.533 23.734 0 42.975 19.49 42.975 43.533v30.138c0 24.043-19.24 43.534-42.975 43.534z" fill="#ff9f70"/></g><g><path d="m111.51 30.339c-1.652 0-3.28.104-4.883.288 21.434 2.457 38.091 20.876 38.091 43.245v30.138c0 22.369-16.658 40.788-38.091 43.245 1.604.184 3.231.288 4.883.288 23.734 0 42.975-19.49 42.975-43.533v-30.138c0-24.042-19.24-43.533-42.975-43.533z" fill="#e18152"/></g><g><path d="m111.51 30.339c1.652 0 3.28.104 4.883.288-21.433 2.457-38.091 20.876-38.091 43.245v30.138c0 22.369 16.658 40.788 38.091 43.245-1.604.184-3.231.288-4.883.288-23.735 0-42.975-19.49-42.975-43.533v-30.138c0-24.042 19.24-43.533 42.975-43.533z" fill="#ffbd8e"/></g><g><path d="m111.51 149.544c-24.799 0-44.975-20.426-44.975-45.533v-30.139c0-25.107 20.176-45.532 44.975-45.532 24.8 0 44.976 20.426 44.976 45.532v30.139c-.001 25.107-20.176 45.533-44.976 45.533zm0-117.204c-22.594 0-40.975 18.631-40.975 41.532v30.139c0 22.901 18.381 41.533 40.975 41.533s40.976-18.632 40.976-41.533v-30.139c-.001-22.901-18.382-41.532-40.976-41.532z" fill="#690589"/></g><g><path d="m68.535 105.26h-3.068c-9.021 0-16.361-7.34-16.361-16.361s7.34-16.361 16.361-16.361h3.068c1.104 0 2 .896 2 2v28.723c0 1.103-.895 1.999-2 1.999zm-3.068-28.723c-6.816 0-12.361 5.545-12.361 12.361s5.545 12.361 12.361 12.361h1.068v-24.722z" fill="#690589"/></g><g><path d="m157.554 105.26h-3.068c-1.104 0-2-.896-2-2v-28.723c0-1.104.896-2 2-2h3.068c9.021 0 16.361 7.34 16.361 16.361 0 9.022-7.34 16.362-16.361 16.362zm-1.069-4h1.068c6.816 0 12.361-5.545 12.361-12.361s-5.545-12.361-12.361-12.361h-1.068z" fill="#690589"/></g><g><path d="m79.177 152.328-20.483 20.483h20.483l32.391 29.594z" fill="#f4efed"/></g><g><path d="m111.567 204.405c-.484 0-.968-.175-1.349-.523l-31.818-29.071h-19.706c-.809 0-1.538-.487-1.848-1.234-.31-.748-.139-1.607.434-2.18l20.482-20.482c.427-.428 1.026-.636 1.625-.575.601.064 1.141.396 1.469.903l32.391 50.077c.546.844.38 1.963-.388 2.612-.373.316-.833.473-1.292.473zm-48.045-33.594h15.654c.499 0 .98.187 1.349.523l20.935 19.127-22.619-34.969z" fill="#690589"/></g><g><path d="m143.959 152.328 20.482 20.483h-20.482l-32.391 29.594z" fill="#f4efed"/></g><g><path d="m111.567 204.405c-.459 0-.918-.157-1.292-.474-.768-.649-.934-1.768-.388-2.612l32.392-50.077c.328-.508.868-.839 1.469-.903.598-.06 1.197.148 1.625.575l20.482 20.482c.572.572.743 1.432.434 2.18-.31.747-1.039 1.234-1.848 1.234h-19.706l-31.819 29.071c-.381.349-.864.524-1.349.524zm32.727-48.913-22.619 34.969 20.936-19.127c.368-.337.85-.523 1.349-.523h15.654z" fill="#690589"/></g><g><path d="m111.567 253.996c-1.104 0-2-.895-2-2v-49.591c0-1.105.896-2 2-2s2 .895 2 2v49.591c0 1.105-.895 2-2 2z" fill="#690589"/></g><g><path d="m88.81 167.221h45.517l-22.759 35.184z" fill="#fcc24c"/></g><g><path d="m111.567 204.405c-.679 0-1.311-.344-1.68-.914l-22.757-35.184c-.397-.615-.427-1.398-.077-2.042.351-.643 1.024-1.044 1.757-1.044h45.517c.732 0 1.406.4 1.757 1.044s.32 1.427-.077 2.042l-22.76 35.184c-.369.57-1.001.914-1.68.914zm-19.081-35.183 19.081 29.501 19.084-29.501z" fill="#690589"/></g><g><path d="m51.065 253.996c-1.104 0-2-.895-2-2v-49.591c0-1.105.896-2 2-2s2 .895 2 2v49.591c0 1.105-.895 2-2 2z" fill="#690589"/></g><g><path d="m171.875 253.996c-1.105 0-2-.895-2-2v-49.591c0-1.105.895-2 2-2s2 .895 2 2v49.591c0 1.105-.895 2-2 2z" fill="#690589"/></g><g><path d="m111.47 4c-29.953 0-54.235 24.282-54.235 54.235v3.806h108.47v-3.806c0-29.953-24.282-54.235-54.235-54.235z" fill="#526faa"/></g><g><path d="m111.47 4c-1.376 0-2.736.068-4.086.169 28.042 2.091 50.148 25.489 50.148 54.066v3.806h8.173v-3.806c0-29.953-24.282-54.235-54.235-54.235z" fill="#34518c"/></g><g><path d="m111.47 4c1.376 0 2.736.068 4.086.169-28.042 2.091-50.148 25.489-50.148 54.066v3.806h-8.173v-3.806c0-29.953 24.282-54.235 54.235-54.235z" fill="#708dc8"/></g><g><path d="m165.705 64.041h-108.47c-1.104 0-2-.896-2-2v-3.807c0-31.007 25.227-56.234 56.235-56.234s56.235 25.227 56.235 56.234v3.807c0 1.105-.895 2-2 2zm-106.47-4h104.47v-1.807c0-28.801-23.432-52.234-52.235-52.234-28.802 0-52.235 23.433-52.235 52.234z" fill="#690589"/></g><g><g><path d="m149.856 69.818c-.545 0-1.097-.049-1.652-.151l-30.057-5.524c-4.43-.815-8.924-.815-13.355 0l-30.057 5.524c-4.931.908-9.665-2.358-10.573-7.29-.906-4.932 2.358-9.666 7.29-10.573l30.057-5.524c6.609-1.214 13.312-1.215 19.921 0l30.057 5.524c4.932.907 8.197 5.64 7.289 10.573-.804 4.377-4.623 7.44-8.92 7.441z" fill="#f4efed"/></g></g><g><g><path d="m73.07 71.82c-2.225 0-4.395-.672-6.266-1.962-2.438-1.681-4.074-4.209-4.608-7.12-1.105-6.008 2.885-11.796 8.893-12.901l30.059-5.523c6.851-1.26 13.796-1.26 20.645 0l30.056 5.523c6.01 1.106 10 6.893 8.895 12.901-.966 5.261-5.544 9.079-10.887 9.079-.671 0-1.348-.062-2.012-.183l-30.059-5.525c-4.19-.771-8.44-.771-12.631 0l-30.059 5.524c-.675.126-1.353.187-2.026.187zm38.402-24.451c-3.207 0-6.415.293-9.601.878l-30.058 5.523c-3.84.707-6.39 4.405-5.684 8.245.342 1.86 1.388 3.476 2.945 4.55 1.557 1.073 3.438 1.476 5.298 1.135l30.059-5.524c4.671-.859 9.407-.859 14.078 0l30.056 5.524c.426.077.861.117 1.291.117 3.411 0 6.336-2.44 6.953-5.802.706-3.84-1.844-7.539-5.684-8.245l-30.057-5.523c-3.182-.585-6.389-.878-9.596-.878z" fill="#690589"/></g></g><g><path d="m64.991 211.962h28.372v13.747h-28.372z" fill="#f4efed"/></g><g><path d="m93.363 227.709h-28.372c-1.105 0-2-.895-2-2v-13.747c0-1.104.896-2 2-2h28.372c1.104 0 2 .896 2 2v13.747c0 1.105-.895 2-2 2zm-26.372-4h24.372v-9.747h-24.372z" fill="#690589"/></g><g><path d="m133.256 152.331h99.619v99.619h-99.619z" fill="#f4efed"/></g><g><path d="m220.663 152.331h12.211v99.619h-12.211z" fill="#d6d1cf"/></g><g><path d="m173.12 152.331h19.891v10.712h-19.891z" fill="#fcc24c"/></g><g><path d="m232.875 253.95h-99.619c-1.105 0-2-.895-2-2v-99.619c0-1.105.895-2 2-2h99.619c1.105 0 2 .895 2 2v99.619c0 1.105-.895 2-2 2zm-97.619-4h95.619v-95.619h-95.619z" fill="#690589"/></g><g><path d="m193.011 165.043h-19.891c-1.105 0-2-.895-2-2v-10.712c0-1.105.895-2 2-2h19.891c1.105 0 2 .895 2 2v10.712c0 1.105-.896 2-2 2zm-17.891-4h15.891v-6.712h-15.891z" fill="#690589"/></g><g><path d="m32.859 204.485c-1.105 0-2-.896-2-2v-12c0-1.104.896-2 2-2s2 .896 2 2v12c0 1.105-.895 2-2 2z" fill="#690589"/></g><g><path d="m170.948 236.672-14.919-14.919 3.513-3.513c-1.996-1.996-1.996-5.232 0-7.228l.361-.361c-.467-.467-.862-.98-1.183-1.524-.257-.435-.467-.89-.631-1.358-.041-.117-.079-.235-.114-.353-.771-2.606-.129-5.542 1.928-7.598l9.582-9.582c.342-.342.734-.602 1.152-.788 1.407-.626 3.112-.366 4.266.788 1.39 1.39 1.486 3.582.293 5.085l14.717-14.717c1.496-1.496 3.95-1.609 5.474-.141 1.552 1.496 1.569 3.968.051 5.486l2.389-2.389c1.518-1.518 3.989-1.501 5.486.051 1.469 1.523 1.356 3.978-.141 5.474l-2.299 2.299c1.518-1.518 3.989-1.501 5.486.051 1.469 1.523 1.356 3.977-.141 5.474l-2.299 2.299c1.518-1.518 3.989-1.501 5.485.051 1.469 1.523 1.356 3.978-.141 5.474l-12.64 12.64-.081.081-15.672 15.672c-1.761 1.761-4.615 1.761-6.376 0z" fill="#ff9f70"/></g><g><path d="m170.948 238.672c-.512 0-1.023-.195-1.414-.586l-14.92-14.919c-.375-.375-.586-.884-.586-1.414s.211-1.039.586-1.414l2.301-2.302c-1.27-2.325-1.145-5.216.374-7.431-.102-.151-.199-.306-.291-.462-.323-.548-.591-1.125-.798-1.718-.051-.146-.1-.295-.144-.445-1.007-3.401-.075-7.072 2.433-9.578l9.582-9.583c.502-.503 1.092-.906 1.752-1.2 2.191-.974 4.8-.494 6.493 1.2.444.443.803.943 1.074 1.477l11.107-11.107c2.285-2.286 5.998-2.362 8.275-.166.581.56 1.031 1.218 1.334 1.938.77-.354 1.603-.527 2.489-.528 1.581.015 3.057.649 4.154 1.789 1.683 1.744 2.031 4.332 1.074 6.475.733.304 1.403.758 1.972 1.349 1.683 1.745 2.032 4.333 1.074 6.476.733.304 1.403.759 1.972 1.349 2.195 2.276 2.121 5.989-.165 8.275l-28.394 28.393c-2.045 2.044-5.125 2.439-7.567 1.192l-2.354 2.354c-.389.391-.901.586-1.413.586zm-12.092-16.919 12.092 12.091 2.132-2.132c.781-.781 2.047-.781 2.828 0 .977.979 2.568.979 3.548 0l28.393-28.393c.755-.755.806-1.953.114-2.672-.348-.359-.813-.56-1.312-.564-.466-.015-.968.187-1.32.54-.781.779-2.047.78-2.828-.001s-.781-2.047 0-2.828v-.001l.006-.006 2.293-2.292c.756-.756.807-1.953.115-2.672-.348-.359-.813-.56-1.312-.564-.504-.018-.964.185-1.315.535l-.005.005c-.781.781-2.047.781-2.828 0-.781-.78-.781-2.047-.001-2.828h.001l2.299-2.299c.755-.756.807-1.955.115-2.673-.348-.359-.813-.559-1.312-.564-.517.028-.967.188-1.319.54l-2.39 2.389c-.781.781-2.047.781-2.828 0-.391-.391-.586-.902-.586-1.414s.195-1.023.586-1.414c.353-.353.544-.821.539-1.32-.004-.498-.205-.964-.564-1.312-.72-.689-1.916-.641-2.672.115l-14.717 14.717c-.75.75-1.953.784-2.745.079-.791-.706-.895-1.906-.235-2.736.577-.728.517-1.771-.141-2.429-.54-.538-1.338-.685-2.038-.374-.211.094-.396.22-.551.374l-9.582 9.583c-1.47 1.47-2.016 3.621-1.425 5.616.026.089.054.175.084.26.121.347.277.684.466 1.004.24.406.535.786.876 1.127.779.781.778 2.047-.002 2.827l-.361.361c-1.212 1.213-1.212 3.186.001 4.399.78.781.78 2.047-.001 2.828z" fill="#690589"/></g><g><path d="m167.104 205.412c-.512 0-1.023-.195-1.414-.586-.781-.781-.781-2.047 0-2.828l8.092-8.092c.781-.781 2.047-.781 2.828 0s.781 2.047 0 2.828l-8.092 8.092c-.391.391-.903.586-1.414.586z" fill="#690589"/></g><g><path d="m187.829 195.557c-.512 0-1.023-.195-1.414-.586-.781-.781-.781-2.047 0-2.828l7.608-7.608c.781-.781 2.047-.781 2.828 0s.781 2.047 0 2.828l-7.608 7.608c-.391.39-.902.586-1.414.586z" fill="#690589"/></g><g><path d="m193.264 200.992c-.512 0-1.023-.195-1.414-.586-.781-.781-.781-2.047 0-2.828l7.608-7.608c.781-.781 2.047-.781 2.828 0s.781 2.047 0 2.828l-7.608 7.608c-.391.391-.903.586-1.414.586z" fill="#690589"/></g><g><path d="m198.699 206.427c-.512 0-1.023-.195-1.414-.586-.781-.781-.781-2.047 0-2.828l6.015-6.015c.781-.781 2.047-.781 2.828 0s.781 2.047 0 2.828l-6.015 6.015c-.39.39-.902.586-1.414.586z" fill="#690589"/></g><g><path d="m183.066 247.235c-.001 0 0 0-.001 0-10.577-.001-20.521-4.119-28-11.599-15.439-15.439-15.439-40.561 0-56 7.479-7.48 17.423-11.598 28-11.598s20.521 4.118 28 11.598c15.439 15.439 15.439 40.561 0 56-7.478 7.479-17.422 11.599-27.999 11.599zm-25.172-64.77c-13.879 13.88-13.879 36.464 0 50.344 6.724 6.724 15.663 10.426 25.172 10.427 9.509 0 18.448-3.703 25.172-10.427 13.879-13.88 13.879-36.464 0-50.344-13.881-13.879-36.465-13.879-50.344 0z" fill="#690589"/></g><g><path d="m209.651 236.223c-.512 0-1.023-.195-1.414-.586l-53.172-53.172c-.781-.781-.781-2.047 0-2.828s2.047-.781 2.828 0l53.172 53.172c.781.781.781 2.047 0 2.828-.39.39-.902.586-1.414.586z" fill="#690589"/></g></g></svg>